<?xml version="1.0" encoding="UTF-8" standalone="no"?>
<!-- Created with Inkscape (http://www.inkscape.org/) -->

<svg
   width="1280"
   height="640"
   viewBox="0 0 338.66667 169.33334"
   version="1.1"
   id="svg5"
   inkscape:version="1.1.2 (b8e25be833, 2022-02-05)"
   sodipodi:docname="shell_script_book.svg"
   xmlns:inkscape="http://www.inkscape.org/namespaces/inkscape"
   xmlns:sodipodi="http://sodipodi.sourceforge.net/DTD/sodipodi-0.dtd"
   xmlns="http://www.w3.org/2000/svg"
   xmlns:svg="http://www.w3.org/2000/svg">
  <sodipodi:namedview
     id="namedview7"
     pagecolor="#a5a5a5"
     bordercolor="#666666"
     borderopacity="1.0"
     inkscape:pageshadow="2"
     inkscape:pageopacity="0"
     inkscape:pagecheckerboard="0"
     inkscape:document-units="px"
     showgrid="false"
     units="px"
     inkscape:zoom="1.0140625"
     inkscape:cx="640"
     inkscape:cy="319.50693"
     inkscape:window-width="1920"
     inkscape:window-height="1057"
     inkscape:window-x="-8"
     inkscape:window-y="-8"
     inkscape:window-maximized="1"
     inkscape:current-layer="layer1"
     inkscape:snap-object-midpoints="true"
     inkscape:snap-midpoints="true"
     inkscape:snap-intersection-paths="true"
     inkscape:object-paths="true" />
  <defs
     id="defs2" />
  <g
     inkscape:label="Camada 1"
     inkscape:groupmode="layer"
     id="layer1">
    <rect
       style="fill:#ffffff;fill-opacity:1;stroke-width:0.875421"
       id="rect4076"
       width="338.66669"
       height="169.33334"
       x="-1.7763568e-15"
       y="-1.7763568e-15" />
    <text
       xml:space="preserve"
       style="font-size:25.4px;line-height:1.25;font-family:'Helvetica Neue LT W06';-inkscape-font-specification:'Helvetica Neue LT W06';fill:#008080;fill-opacity:1;stroke-width:0.264583"
       x="119.15346"
       y="58.6105"
       id="text1904"><tspan
         sodipodi:role="line"
         id="tspan1902"
         style="font-style:normal;font-variant:normal;font-weight:normal;font-stretch:normal;font-size:25.4px;font-family:'Lucida Fax';-inkscape-font-specification:'Lucida Fax';fill:#008080;fill-opacity:1;stroke-width:0.264583"
         x="119.15346"
         y="58.6105">SS Book</tspan></text>
    <g
       id="g5176"
       transform="matrix(0.44097223,0,0,0.44097223,-186.52715,-20.117174)" />
    <g
       id="g5178"
       transform="matrix(0.44097223,0,0,0.44097223,-186.52715,-20.117174)" />
    <g
       id="g5180"
       transform="matrix(0.44097223,0,0,0.44097223,-186.52715,-20.117174)" />
    <g
       id="g5182"
       transform="matrix(0.44097223,0,0,0.44097223,-186.52715,-20.117174)" />
    <g
       id="g5184"
       transform="matrix(0.44097223,0,0,0.44097223,-186.52715,-20.117174)" />
    <g
       id="g5186"
       transform="matrix(0.44097223,0,0,0.44097223,-186.52715,-20.117174)" />
    <g
       id="g5188"
       transform="matrix(0.44097223,0,0,0.44097223,-186.52715,-20.117174)" />
    <g
       id="g5190"
       transform="matrix(0.44097223,0,0,0.44097223,-186.52715,-20.117174)" />
    <g
       id="g5192"
       transform="matrix(0.44097223,0,0,0.44097223,-186.52715,-20.117174)" />
    <g
       id="g5194"
       transform="matrix(0.44097223,0,0,0.44097223,-186.52715,-20.117174)" />
    <g
       id="g5196"
       transform="matrix(0.44097223,0,0,0.44097223,-186.52715,-20.117174)" />
    <g
       id="g5198"
       transform="matrix(0.44097223,0,0,0.44097223,-186.52715,-20.117174)" />
    <g
       id="g5200"
       transform="matrix(0.44097223,0,0,0.44097223,-186.52715,-20.117174)" />
    <g
       id="g5202"
       transform="matrix(0.44097223,0,0,0.44097223,-186.52715,-20.117174)" />
    <g
       id="g5204"
       transform="matrix(0.44097223,0,0,0.44097223,-186.52715,-20.117174)" />
    <path
       style="fill:none;stroke:#000000;stroke-width:0.529166;stroke-linecap:round;stroke-linejoin:round;stroke-miterlimit:4;stroke-dasharray:none;stroke-opacity:1"
       d="M 37.335914,103.12819 H 301.33077"
       id="path8030" />
    <text
       xml:space="preserve"
       style="font-size:22.5778px;line-height:1.25;font-family:'Helvetica Neue LT W06';-inkscape-font-specification:'Helvetica Neue LT W06';fill:#008080;fill-opacity:1;stroke-width:0.264583"
       x="84.776833"
       y="89.450325"
       id="text10894"><tspan
         sodipodi:role="line"
         id="tspan10892"
         style="font-style:normal;font-variant:normal;font-weight:normal;font-stretch:normal;font-size:22.5778px;font-family:'Freestyle Script';-inkscape-font-specification:'Freestyle Script';fill:#008080;fill-opacity:1;stroke-width:0.264583"
         x="84.776833"
         y="89.450325">A collection of Shell Scripts</tspan></text>
    <g
       id="g9050"
       transform="matrix(4.7236734,2.7272141,-2.7272141,4.7236734,60.526385,72.269766)"
       style="stroke-width:0.183337;fill:#000000">
      <path
         id="path8890"
         style="fill:#000000;stroke-width:0.183337"
         d="m 83.443359,-11.71875 c -0.338419,0.05699 -0.66065,0.170986 -0.953125,0.339844 -0.437344,0.25251 -0.806647,0.620601 -1.064453,1.080078 l -4.314453,7.6835936 c -0.514386,0.9170569 -0.499869,2.05425909 0.03711,2.98437502 l 4.498046,7.79101558 c 0.536504,0.9292462 1.514152,1.5089285 2.566407,1.5214844 l 5.328125,0.064453 c 0.336756,-0.057264 0.658047,-0.171738 0.949218,-0.3398438 0.437341,-0.2524989 0.807009,-0.6200308 1.064454,-1.078125 l 4.3125,-7.68359375 c 0.514386,-0.91705691 0.50199,-2.05426305 -0.03516,-2.98437505 l -4.498047,-7.791015 c -0.536999,-0.930116 -1.514151,-1.510882 -2.566406,-1.523438 z m 5.03711,0.542969 0.90039,0.01172 c -0.218672,0.05223 -0.429787,0.135341 -0.625,0.248046 -0.36373,0.209998 -0.664731,0.514271 -0.871093,0.882813 l -4.3125,7.6835936 c -0.228926,0.4080756 -0.324907,0.8726213 -0.298828,1.3339844 -0.03859,0.48083526 0.06011,0.96693908 0.298828,1.39257812 l 4.3125,7.68359378 c 0.206362,0.3685421 0.507352,0.6728144 0.871093,0.8828125 0.195213,0.1127055 0.406317,0.1958138 0.625,0.2480468 l -0.90039,0.011719 -4.269531,-0.052734 C 83.349209,9.1398457 82.54011,8.6594534 82.099609,7.8964844 L 77.603516,0.10742188 c -0.201298,-0.34869543 -0.308157,-0.73471933 -0.330078,-1.12304688 0.02952,-0.3681751 0.138985,-0.7335933 0.330078,-1.0644531 l 4.496093,-7.7890625 c 0.440501,-0.7629694 1.2496,-1.2433234 2.111329,-1.2539064 z m -0.705078,9.6855466 c 0.03097,-0.00561 0.06438,0.01379 0.08984,0.056641 l 0.332032,0.56250005 c 0.181908,-0.23089135 0.374726,-0.37525785 0.585937,-0.43945315 0.04675,-0.01285 0.09617,0.033154 0.117188,0.1074219 l 0.164062,0.57226562 c 0.01247,0.043578 0.0131,0.0939968 0.002,0.1328125 -0.0045,0.01663 -0.01159,0.0303829 -0.01953,0.0429688 -0.01134,0.0181417 -0.02655,0.0310621 -0.04492,0.0371094 -0.09585,0.0298583 -0.323999,0.10266343 -0.548828,0.44726563 -0.235918,0.36136062 -0.185208,0.71836189 -0.05859,0.93164062 0.151106,0.25572283 0.327066,0.25911513 0.78711,0.003906 0.612207,-0.33962834 1.028155,-0.22617805 1.386718,0.38085933 0.350703,0.5931024 0.403287,1.4206167 0.140625,2.0976563 l 0.333985,0.5546875 c 0.03987,0.067053 0.0393,0.1692119 0.002,0.2265625 L 90.824317,4.605469 C 90.786897,4.662808 90.723566,4.654951 90.683692,4.587891 L 90.361328,4.0429688 c -0.216038,0.2817713 -0.486792,0.4754257 -0.71289,0.5078124 -0.04264,0.00616 -0.08777,-0.035564 -0.107422,-0.1015624 L 89.369141,3.8730469 c -0.01361,-0.045317 -0.01401,-0.097003 0,-0.1386719 0.0049,-0.015572 0.01002,-0.02976 0.01758,-0.041016 0.01361,-0.020485 0.03033,-0.034501 0.05078,-0.037109 0.236825,-0.047819 0.472181,-0.2248036 0.644531,-0.4882812 0.218684,-0.3352595 0.243073,-0.7685793 0.05859,-1.0800782 C 89.974023,1.8053332 89.750617,1.7748891 89.375,1.9882812 88.899184,2.2641454 88.400208,2.4279462 87.988281,1.7304688 87.648577,1.1564226 87.603418,0.38124469 87.859375,-0.2734375 l -0.332031,-0.56054688 c -0.04086,-0.0687874 -0.04257,-0.16929042 -0.0039,-0.22851562 l 0.203124,-0.390625 c 0.01403,-0.021501 0.03024,-0.033741 0.04883,-0.037109 z m 5.558593,1.58984377 c 0.01914,6.4583e-4 0.03773,0.01308391 0.05273,0.03906251 l 0.21875,0.37695312 c 0.02986,0.0519685 0.05032,0.10609567 0.02148,0.15625 l -1.076172,1.9648438 c -0.02872,0.050105 -0.07546,0.048062 -0.105469,-0.00391 L 92.197266,2.2050781 c -0.02986,-0.051965 -0.0131,-0.09834 0.01563,-0.1484375 L 93.28125,0.13476562 c 0.01436,-0.0250583 0.03359,-0.03580207 0.05273,-0.03515625 z"
         transform="scale(0.26458334)" />
      <path
         id="path8869"
         style="fill:#000000;stroke-width:0.183337"
         d="m 89.373047,-11.162109 -3.162109,0.03906 c -0.107717,0.0013 -0.214864,0.0099 -0.320313,0.02539 -0.105449,0.0155 -0.208613,0.03914 -0.310547,0.06836 -0.101972,0.0291 -0.201619,0.06536 -0.298828,0.107422 -0.09725,0.04207 -0.191928,0.09033 -0.283203,0.144531 -0.09128,0.0542 -0.179615,0.114113 -0.263672,0.179688 -0.08406,0.06558 -0.164606,0.13662 -0.240234,0.21289 -0.07563,0.07623 -0.1469,0.156015 -0.212891,0.242188 -0.06595,0.08617 -0.126573,0.1780421 -0.181641,0.2734374 l -4.496093,7.7890625 c -0.03742,0.06497 -0.07034,0.1318298 -0.101563,0.1992187 -0.01058,0.022677 -0.02142,0.045267 -0.03125,0.068359 -0.0068,0.016252 -0.01273,0.032501 -0.01953,0.048828 -0.01776,0.043918 -0.03364,0.088176 -0.04883,0.1328125 -0.02003,0.059906 -0.03743,0.1207147 -0.05273,0.1816406 -0.0064,0.025323 -0.01386,0.050584 -0.01953,0.076172 -0.01965,0.089613 -0.03476,0.1807002 -0.04492,0.2714844 -0.0042,0.036661 -0.0071,0.072638 -0.0098,0.109375 0.02495,0.38043212 0.130833,0.75790986 0.328125,1.09960938 L 84.099581,7.896482 c 0.05507,0.095373 0.115688,0.1872642 0.181641,0.2734375 0.06595,0.086173 0.137262,0.1659393 0.212891,0.2421875 0.07563,0.076248 0.156177,0.1473045 0.240234,0.2128906 0.08406,0.06559 0.172434,0.1254891 0.263672,0.1796875 0.09127,0.054195 0.185994,0.1024576 0.283203,0.1445313 0.09721,0.042074 0.196894,0.078202 0.298828,0.1074218 0.101972,0.029216 0.205098,0.052724 0.310547,0.068359 0.105449,0.015647 0.212596,0.024068 0.320313,0.025391 l 3.162109,0.039063 c -0.03093,-0.0075 -0.0612,-0.01666 -0.0918,-0.025391 l -1.070281,-0.01367 C 88.103221,9.1490667 87.996074,9.1406472 87.890625,9.125 87.785176,9.1093528 87.682012,9.0858639 87.580078,9.0566406 87.376173,8.9981978 87.180572,8.9130768 86.998047,8.8046875 86.906771,8.7504929 86.818432,8.6905861 86.734375,8.625 86.650318,8.5594139 86.569769,8.4883538 86.494141,8.4121094 86.418512,8.335865 86.347203,8.2560989 86.28125,8.1699219 86.215297,8.0837486 86.154677,7.991857 86.099609,7.8964844 L 81.603516,0.10742188 c -0.191093,-0.33085984 -0.300598,-0.69628936 -0.330078,-1.06445313 6.65e-4,-0.0117165 0.0011,-0.0234397 0.002,-0.0351563 -5.07e-4,-0.007937 -0.0015,-0.0155004 -0.002,-0.0234376 0.0023,-0.028724 0.0083,-0.057251 0.01172,-0.085937 0.0102,-0.090935 0.02455,-0.1816828 0.04492,-0.2714845 0.0013,-0.00605 0.0027,-0.011531 0.0039,-0.017578 0.0045,-0.019653 0.01071,-0.039016 0.01563,-0.058594 0.01587,-0.061039 0.03251,-0.1216216 0.05273,-0.1816406 0.01474,-0.044485 0.03137,-0.089045 0.04883,-0.1328125 0.0064,-0.016252 0.01235,-0.0325 0.01953,-0.048828 0.0098,-0.023055 0.02067,-0.045607 0.03125,-0.068359 0.03099,-0.067502 0.06399,-0.1340975 0.101563,-0.1992187 L 86.099604,-9.86914 c 0.05507,-0.095358 0.115688,-0.187264 0.181641,-0.273437 0.06595,-0.08617 0.137262,-0.165955 0.212891,-0.242188 0.07563,-0.07623 0.156177,-0.147278 0.240234,-0.21289 0.08406,-0.06557 0.172434,-0.125489 0.263672,-0.179688 0.09127,-0.0542 0.18404,-0.102465 0.28125,-0.144531 0,0 0.002,0 0.002,0 0.09672,-0.04176 0.197461,-0.07836 0.298828,-0.107422 0.101972,-0.0291 0.205098,-0.05271 0.310547,-0.06836 0.105449,-0.0155 0.212596,-0.02426 0.320313,-0.02539 l 1.070312,-0.01367 c 0.0306,-0.0087 0.06087,-0.01789 0.0918,-0.02539 z"
         transform="scale(0.26458334)" />
    </g>
  </g>
</svg>
